<svg xmlns="http://www.w3.org/2000/svg" xmlns:xlink="http://www.w3.org/1999/xlink" width="500" zoomAndPan="magnify" viewBox="0 0 375 374.999991" height="500" preserveAspectRatio="xMidYMid meet" version="1.2"><defs><clipPath id="8efc0dafdd"><path d="M 51.871094 0 L 323.128906 0 L 323.128906 271.261719 L 51.871094 271.261719 Z M 51.871094 0 "/></clipPath><clipPath id="71bfbfebe7"><path d="M 187.5 0 C 112.59375 0 51.871094 60.722656 51.871094 135.628906 C 51.871094 210.535156 112.59375 271.261719 187.5 271.261719 C 262.40625 271.261719 323.128906 210.535156 323.128906 135.628906 C 323.128906 60.722656 262.40625 0 187.5 0 Z M 187.5 0 "/></clipPath><clipPath id="3ddf3f7f8b"><path d="M 111.425781 74.15625 L 261.894531 74.15625 L 261.894531 166.753906 L 111.425781 166.753906 Z M 111.425781 74.15625 "/></clipPath><clipPath id="f6d4ae5974"><path d="M 186.539062 74.15625 L 261.65625 120.453125 L 186.539062 166.753906 L 111.425781 120.453125 Z M 186.539062 74.15625 "/></clipPath></defs><g id="566754f20c"><g clip-rule="nonzero" clip-path="url(#8efc0dafdd)"><g clip-rule="nonzero" clip-path="url(#71bfbfebe7)"><path style=" stroke:none;fill-rule:nonzero;fill:#00bf63;fill-opacity:1;" d="M 51.871094 0 L 323.128906 0 L 323.128906 271.261719 L 51.871094 271.261719 Z M 51.871094 0 "/></g></g><path style="fill:none;stroke-width:20;stroke-linecap:round;stroke-linejoin:miter;stroke:#00bf63;stroke-opacity:1;stroke-miterlimit:4;" d="M 10.000906 9.999105 L 185.526959 9.999105 " transform="matrix(0,0.75,-0.75,0,194.995422,228.358696)"/><g clip-rule="nonzero" clip-path="url(#3ddf3f7f8b)"><g clip-rule="nonzero" clip-path="url(#f6d4ae5974)"><path style=" stroke:none;fill-rule:nonzero;fill:#000000;fill-opacity:1;" d="M 111.425781 74.15625 L 261.53125 74.15625 L 261.53125 166.753906 L 111.425781 166.753906 Z M 111.425781 74.15625 "/></g></g><path style="fill:none;stroke-width:2;stroke-linecap:round;stroke-linejoin:round;stroke:#000000;stroke-opacity:1;stroke-miterlimit:4;" d="M 21.42 10.921844 C 21.5095 10.882344 21.5915 10.830844 21.666 10.767344 C 21.74 10.703844 21.804 10.630844 21.857 10.548844 C 21.91 10.466344 21.95 10.378344 21.977 10.284344 C 22.0045 10.190344 22.0175 10.094344 22.0165 9.996844 C 22.0155 9.898844 22.0005 9.803344 21.971 9.709844 C 21.942 9.616344 21.9 9.529344 21.8455 9.447844 C 21.791 9.366844 21.7255 9.295344 21.65 9.233344 C 21.5745 9.171344 21.4915 9.121844 21.401 9.083844 L 12.83 5.179844 C 12.6995 5.120344 12.5645 5.075844 12.4245 5.045344 C 12.285 5.014844 12.143 4.999844 12 4.999844 C 11.857 4.999844 11.715 5.014844 11.5755 5.045344 C 11.4355 5.075844 11.3005 5.120344 11.17 5.179844 L 2.6 9.079844 C 2.511 9.118844 2.4295 9.169844 2.355 9.232844 C 2.281 9.295344 2.2175 9.367344 2.164 9.448844 C 2.111 9.530344 2.0705 9.617344 2.043 9.710344 C 2.015 9.803844 2.001 9.898844 2.001 9.995844 C 2.001 10.093344 2.015 10.188344 2.043 10.281344 C 2.0705 10.374844 2.111 10.461844 2.164 10.543344 C 2.2175 10.624344 2.281 10.696344 2.355 10.759344 C 2.4295 10.822344 2.511 10.872844 2.6 10.911844 L 11.17 14.819844 C 11.3005 14.879344 11.4355 14.924344 11.5755 14.954844 C 11.715 14.985344 11.857 15.000344 12 15.000344 C 12.143 15.000344 12.285 14.985344 12.4245 14.954844 C 12.5645 14.924344 12.6995 14.879344 12.83 14.819844 Z M 21.42 10.921844 " transform="matrix(7.8125,0,0,7.8125,93.749998,41.880122)"/><path style="fill:none;stroke-width:2;stroke-linecap:round;stroke-linejoin:round;stroke:#000000;stroke-opacity:1;stroke-miterlimit:4;" d="M 22 9.999844 L 22 15.999844 " transform="matrix(7.8125,0,0,7.8125,93.749998,41.880122)"/><path style="fill:none;stroke-width:2;stroke-linecap:round;stroke-linejoin:round;stroke:#000000;stroke-opacity:1;stroke-miterlimit:4;" d="M 6 12.499844 L 6 15.999844 C 6 16.098344 6.0095 16.196344 6.029 16.293844 C 6.048 16.391844 6.077 16.488844 6.1155 16.585344 C 6.1535 16.681844 6.2015 16.776844 6.2585 16.870844 C 6.3155 16.964844 6.3815 17.057344 6.4565 17.147844 C 6.532 17.238844 6.616 17.327344 6.7085 17.414344 C 6.801 17.500844 6.902 17.584844 7.011 17.666844 C 7.1205 17.748344 7.2375 17.827344 7.362 17.903344 C 7.4865 17.979344 7.6185 18.051844 7.7575 18.121344 C 7.8965 18.190844 8.0415 18.256844 8.1935 18.318844 C 8.3455 18.381344 8.503 18.439844 8.6665 18.494344 C 8.83 18.548844 8.9985 18.599344 9.1715 18.645844 C 9.345 18.691844 9.5225 18.733844 9.704 18.771844 C 9.8855 18.809344 10.07 18.842344 10.2585 18.870844 C 10.4465 18.899344 10.6365 18.923344 10.8295 18.942344 C 11.022 18.961344 11.2165 18.975844 11.412 18.985344 C 11.6075 18.995344 11.8035 18.999844 12 18.999844 C 12.1965 18.999844 12.3925 18.995344 12.588 18.985344 C 12.7835 18.975844 12.978 18.961344 13.1705 18.942344 C 13.3635 18.923344 13.5535 18.899344 13.7415 18.870844 C 13.93 18.842344 14.1145 18.809344 14.296 18.771844 C 14.4775 18.733844 14.655 18.691844 14.8285 18.645844 C 15.0015 18.599344 15.17 18.548844 15.3335 18.494344 C 15.497 18.439844 15.6545 18.381344 15.8065 18.318844 C 15.9585 18.256844 16.1035 18.190844 16.2425 18.121344 C 16.3815 18.051844 16.5135 17.979344 16.638 17.903344 C 16.7625 17.827344 16.8795 17.748344 16.989 17.666844 C 17.098 17.584844 17.199 17.500844 17.2915 17.414344 C 17.384 17.327344 17.468 17.238844 17.5435 17.147844 C 17.6185 17.057344 17.6845 16.964844 17.7415 16.870844 C 17.7985 16.776844 17.8465 16.681844 17.8845 16.585344 C 17.923 16.488844 17.952 16.391844 17.971 16.293844 C 17.9905 16.196344 18 16.098344 18 15.999844 L 18 12.499844 " transform="matrix(7.8125,0,0,7.8125,93.749998,41.880122)"/></g></svg>